# xmcd CD database file
# Copyright (C) 1993-1998 Ti Kan
#
# Track frame offsets:
#	150
#	63546
#	94172
#	118489
#	144131
#	177141
#	203249
#
# Disc length: 3068 seconds
#
# Revision: 1
# Processed by: cddbd v1.4b41PL1 Copyright (c) Steve Scherf et al.
# Submitted via: CDValet v3.31 - Copyright (c) 1997 Greg Leichner
#
DISCID=630bfa07
DTITLE=Various Artist - X-Mix Club Classics (Vol. 5)
DYEAR=1900
DGENRE=
TTITLE0=Miami Heatwave Rewind (Pt. 2)
TTITLE1=The Power
TTITLE2=Best Of My Love
TTITLE3=Heart Of Glass '95
TTITLE4=Buffalo Stance
TTITLE5=Rapper's Delight
TTITLE6=Let The Music Play
EXTD=
EXTT0=
EXTT1=
EXTT2=
EXTT3=
EXTT4=
EXTT5=
EXTT6=
PLAYORDER=
